# Blender v2.80 (sub 75) OBJ File: 'IntersectionRoads.blend'
# www.blender.org
mtllib BridgeBarrierHousing.mtl
o Barrier_Housing_Cube.002
v -0.727323 0.054335 0.727323
v -0.758148 2.649962 0.758148
v -0.727323 0.054335 -0.727323
v -0.758148 2.649962 -0.758148
v 0.727323 0.054335 0.727323
v 0.758148 2.649962 0.758148
v 0.727323 0.054335 -0.727323
v 0.758148 2.649962 -0.758148
v -0.727323 1.673241 0.727323
v -0.727323 1.673241 -0.727323
v 0.727323 1.673241 -0.727323
v 0.727323 1.673241 0.727323
v -0.758148 1.688437 0.758148
v -0.758148 1.688437 -0.758148
v 0.758148 1.688437 -0.758148
v 0.758148 1.688437 0.758148
v -0.727323 0.054335 -0.242441
v -0.727323 0.054335 0.242441
v -0.758148 2.649962 0.252716
v -0.758148 2.649962 -0.252716
v 0.727323 0.054335 0.242441
v 0.727323 0.054335 -0.242441
v 0.758148 2.649962 -0.252716
v 0.758148 2.649962 0.252716
v 0.727323 1.673241 -0.242441
v 0.727323 1.673241 0.242441
v -0.727323 1.673241 0.242441
v -0.727323 1.673241 -0.242441
v 0.758148 1.688437 -0.252716
v 0.758148 1.688437 0.252716
v -0.758148 1.688437 0.252716
v -0.758148 1.688437 -0.252716
v 0.105491 2.649962 -0.252716
v 0.105491 2.649962 0.252716
v 0.105491 1.688437 -0.252716
v 0.105491 1.688437 0.252716
vt 0.625000 0.250000
vt 0.562500 0.500000
vt 0.562500 0.250000
vt 0.625000 0.666667
vt 0.562500 0.750000
vt 0.562500 0.666667
vt 0.625000 0.750000
vt 0.562500 1.000000
vt 0.375000 0.666667
vt 0.125000 0.750000
vt 0.125000 0.666667
vt 0.000000 0.000000
vt 0.000000 0.000000
vt 0.500000 0.750000
vt 0.375000 1.000000
vt 0.375000 0.750000
vt 0.500000 0.666667
vt 0.500000 0.250000
vt 0.375000 0.500000
vt 0.375000 0.250000
vt 0.500000 0.166667
vt 0.375000 0.166667
vt 0.500000 1.000000
vt 0.500000 0.500000
vt 0.562500 0.166667
vt 0.500000 0.000000
vt 0.562500 0.083333
vt 0.500000 0.083333
vt 0.562500 0.583333
vt 0.500000 0.583333
vt 0.375000 0.083333
vt 0.375000 0.000000
vt 0.375000 0.583333
vt 0.000000 0.000000
vt 0.000000 0.000000
vt 0.000000 0.000000
vt 0.125000 0.583333
vt 0.125000 0.500000
vt 0.625000 0.500000
vt 0.562500 0.583333
vt 0.625000 0.583333
vt 0.000000 0.000000
vt 0.000000 0.000000
vt 0.625000 1.000000
vt 0.562500 0.000000
vt 0.562500 0.666667
vt 0.625000 0.583333
vt 0.000000 0.000000
vt 0.000000 0.000000
vt 0.000000 0.000000
vt 0.625000 0.666667
vt 0.000000 0.000000
vt 0.000000 0.000000
vn 0.0000 0.0000 -1.0000
vn 1.0000 0.0000 0.0000
vn 0.0000 0.0000 1.0000
vn 0.0000 -1.0000 0.0000
vn 0.0000 1.0000 0.0000
vn -1.0000 0.0000 0.0000
vn 0.0000 -0.8969 0.4422
vn 0.4422 -0.8969 0.0000
vn 0.0000 -0.8969 -0.4421
vn -0.4422 -0.8969 0.0000
vn 0.0000 -0.8969 -0.4422
usemtl M_BarrierHousing
s off
f 4/1/1 15/2/1 14/3/1
f 24/4/2 16/5/2 30/6/2
f 6/7/3 13/8/3 16/5/3
f 21/9/4 1/10/4 18/11/4
f 23/12/5 4/1/5 20/13/5
f 12/14/3 1/15/3 5/16/3
f 26/17/2 5/16/2 21/9/2
f 10/18/1 7/19/1 3/20/1
f 28/21/6 3/20/6 17/22/6
f 16/5/7 9/23/7 12/14/7
f 30/6/8 12/14/8 26/17/8
f 14/3/9 11/24/9 10/18/9
f 32/25/10 10/18/10 28/21/10
f 9/26/10 31/27/10 27/28/10
f 31/27/10 28/21/10 27/28/10
f 11/24/8 29/29/8 25/30/8
f 25/30/8 30/6/8 26/17/8
f 9/26/6 18/31/6 1/32/6
f 27/28/6 17/22/6 18/31/6
f 11/24/2 22/33/2 7/19/2
f 25/30/2 21/9/2 22/33/2
f 14/3/6 20/13/6 4/1/6
f 31/34/5 29/35/5 32/36/5
f 7/19/4 17/37/4 3/38/4
f 22/33/4 18/11/4 17/37/4
f 8/39/2 29/29/2 15/2/2
f 35/40/1 23/41/1 29/29/1
f 19/42/5 6/7/5 24/43/5
f 2/44/6 31/27/6 13/45/6
f 36/46/6 33/47/6 35/40/6
f 36/48/4 29/35/4 30/49/4
f 33/50/5 24/43/5 23/12/5
f 34/51/3 30/6/3 24/4/3
f 34/51/1 31/27/1 19/42/1
f 32/25/3 33/47/3 20/13/3
f 24/43/2 29/35/2 23/12/2
f 4/1/1 8/39/1 15/2/1
f 24/4/2 6/7/2 16/5/2
f 6/7/3 2/44/3 13/8/3
f 21/9/4 5/16/4 1/10/4
f 23/12/5 8/39/5 4/1/5
f 12/14/3 9/23/3 1/15/3
f 26/17/2 12/14/2 5/16/2
f 10/18/1 11/24/1 7/19/1
f 28/21/6 10/18/6 3/20/6
f 16/5/7 13/8/7 9/23/7
f 30/6/8 16/5/8 12/14/8
f 14/3/11 15/2/11 11/24/11
f 32/25/10 14/3/10 10/18/10
f 9/26/10 13/45/10 31/27/10
f 31/27/10 32/25/10 28/21/10
f 11/24/8 15/2/8 29/29/8
f 25/30/8 29/29/8 30/6/8
f 9/26/6 27/28/6 18/31/6
f 27/28/6 28/21/6 17/22/6
f 11/24/2 25/30/2 22/33/2
f 25/30/2 26/17/2 21/9/2
f 14/3/6 32/25/6 20/13/6
f 31/34/5 30/49/5 29/35/5
f 7/19/4 22/33/4 17/37/4
f 22/33/4 21/9/4 18/11/4
f 8/39/2 23/41/2 29/29/2
f 35/40/1 33/47/1 23/41/1
f 19/42/5 2/44/5 6/7/5
f 2/44/6 19/42/6 31/27/6
f 36/46/6 34/51/6 33/47/6
f 36/48/4 35/52/4 29/35/4
f 33/50/5 34/53/5 24/43/5
f 34/51/3 36/46/3 30/6/3
f 34/51/1 36/46/1 31/27/1
f 32/25/3 35/40/3 33/47/3
f 24/43/2 30/49/2 29/35/2
