# Blender v2.80 (sub 75) OBJ File: 'IntersectionRoads.blend'
# www.blender.org
mtllib PedestrianRoad_Bridge.mtl
o PedestrianRoad_Bridge_BezierCircle.008
v -14.934497 0.500436 -61.916588
v -14.055113 0.500960 -44.191566
v 16.122200 0.741029 -44.466125
v 14.090304 0.732027 -62.366367
v -14.925050 -0.604580 -61.916008
v -14.045669 -0.604055 -44.190990
v 16.131601 -0.363986 -44.467209
v 14.099708 -0.372988 -62.367451
v -18.520731 0.469874 -61.738663
v -17.641348 0.470398 -44.013641
v 19.689548 0.771784 -44.874496
v 17.875502 0.762782 -62.761600
v -18.511284 -0.635142 -61.738083
v -17.631907 -0.634618 -44.013065
v 19.698950 -0.333232 -44.875580
v 17.884905 -0.342233 -62.762684
vn -0.9936 -0.0086 0.1128
vn 0.9987 0.0085 -0.0496
vn 0.9949 0.0086 -0.1009
vn -0.9987 -0.0085 0.0495
vn -0.0085 1.0000 0.0004
vn 0.0495 0.0009 0.9988
vn -0.1039 0.0001 -0.9946
vn 0.0086 -1.0000 -0.0005
vn -0.0081 1.0000 0.0003
vn 0.1137 -0.0000 0.9935
vn -0.0495 -0.0009 -0.9988
vn 0.0085 -1.0000 -0.0004
vn 0.9987 0.0085 -0.0495
vn -0.1038 0.0001 -0.9946
vn 0.0081 -1.0000 -0.0003
vn -0.0086 1.0000 0.0005
usemtl M_PedestrianRoad
s off
f 4//1 7//1 3//1
f 2//2 5//2 1//2
f 15//3 12//3 11//3
f 13//4 10//4 9//4
f 2//5 9//5 10//5
f 6//6 10//6 14//6
f 8//7 12//7 16//7
f 8//8 15//8 7//8
f 4//9 11//9 12//9
f 3//10 15//10 11//10
f 1//11 13//11 9//11
f 6//12 13//12 5//12
f 4//1 8//1 7//1
f 2//13 6//13 5//13
f 15//3 16//3 12//3
f 13//4 14//4 10//4
f 2//5 1//5 9//5
f 6//6 2//6 10//6
f 8//14 4//14 12//14
f 8//15 16//15 15//15
f 4//16 3//16 11//16
f 3//10 7//10 15//10
f 1//11 5//11 13//11
f 6//12 14//12 13//12
