# Blender v2.80 (sub 75) OBJ File: 'IntersectionRoads.blend'
# www.blender.org
mtllib Roads_North.mtl
o Roads_North_BezierCircle.002
v -10.777760 0.000000 -62.149815
v -10.751163 0.000000 -63.177193
v -10.657057 0.000000 -64.282913
v -10.508758 0.000000 -65.436440
v -10.319577 0.000000 -66.607208
v -10.102831 0.000000 -67.764687
v -9.871832 0.000000 -68.878311
v -9.639895 0.000000 -69.917542
v -9.420335 0.000000 -70.851822
v -9.226463 0.000000 -71.650604
v -9.071596 0.000000 -72.283340
v -8.969047 0.000000 -72.719482
v -8.932131 0.000000 -72.928482
v -8.826116 0.000000 -73.994064
v -8.523927 0.000000 -75.496307
v -8.059045 0.000000 -77.345825
v -7.464955 0.000000 -79.453262
v -6.775136 0.000000 -81.729240
v -6.023070 0.000000 -84.084396
v -5.242242 0.000000 -86.429344
v -4.466132 0.000000 -88.674728
v -3.728222 0.000000 -90.731171
v -3.061995 0.000000 -92.509308
v -2.500932 0.000000 -93.919754
v -2.078515 0.000000 -94.873154
v -1.602195 0.000000 -95.748550
v -0.890952 0.000000 -96.937248
v 0.004439 0.000000 -98.368301
v 1.033200 0.000000 -99.970764
v 2.144553 0.000000 -101.673676
v 3.287723 0.000000 -103.406090
v 4.411932 0.000000 -105.097046
v 5.466404 0.000000 -106.675598
v 6.400360 0.000000 -108.070793
v 7.163026 0.000000 -109.211685
v 7.703623 0.000000 -110.027313
v 7.971371 0.000000 -110.446747
v 8.341973 0.000000 -110.540787
v 9.116598 0.000000 -110.367493
v 10.211232 0.000000 -109.972473
v 11.541863 0.000000 -109.401314
v 13.024477 0.000000 -108.699623
v 14.575061 0.000000 -107.912994
v 16.109600 0.000000 -107.087021
v 17.544083 0.000000 -106.267311
v 18.794497 0.000000 -105.499451
v 19.776827 0.000000 -104.829048
v 20.407061 0.000000 -104.301697
v 20.601187 0.000000 -103.962990
v 20.454105 0.000000 -103.584274
v 20.122551 0.000000 -102.872643
v 19.640087 0.000000 -101.886925
v 19.040277 0.000000 -100.685944
v 18.356688 0.000000 -99.328537
v 17.622879 0.000000 -97.873520
v 16.872417 0.000000 -96.379730
v 16.138866 0.000000 -94.905991
v 15.455790 0.000000 -93.511139
v 14.856750 0.000000 -92.253990
v 14.375314 0.000000 -91.193375
v 14.045043 0.000000 -90.388123
v 13.705265 0.000000 -89.396347
v 13.197550 0.000000 -87.817520
v 12.558829 0.000000 -85.772568
v 11.826034 0.000000 -83.382370
v 11.036095 0.000000 -80.767853
v 9.866016 0.000000 -72.778305
v 9.508775 0.000000 -71.356720
v 9.352905 0.000000 -70.557114
v 9.885447 -0.000002 -61.993484
v -10.777760 -1.041133 -62.149815
v -10.751163 -1.041133 -63.177193
v -10.657057 -1.041133 -64.282913
v -10.508758 -1.041133 -65.436440
v -10.319577 -1.041133 -66.607208
v -10.102831 -1.041133 -67.764687
v -9.871832 -1.041133 -68.878311
v -9.639895 -1.041133 -69.917542
v -9.420335 -1.041133 -70.851822
v -9.226463 -1.041133 -71.650604
v -9.071596 -1.041133 -72.283340
v -8.969047 -1.041133 -72.719482
v -8.932131 -1.041133 -72.928482
v -8.826116 -1.041133 -73.994064
v -8.523927 -1.041133 -75.496307
v -8.059045 -1.041133 -77.345825
v -7.464955 -1.041133 -79.453262
v -6.775136 -1.041133 -81.729240
v -6.023070 -1.041133 -84.084396
v -5.242242 -1.041133 -86.429344
v -4.466132 -1.041133 -88.674728
v -3.728222 -1.041133 -90.731171
v -3.061995 -1.041133 -92.509308
v -2.500932 -1.041133 -93.919754
v -2.078515 -1.041133 -94.873154
v -1.602195 -1.041133 -95.748550
v -0.890952 -1.041133 -96.937248
v 0.004439 -1.041133 -98.368301
v 1.033200 -1.041133 -99.970764
v 2.144553 -1.041133 -101.673676
v 3.287723 -1.041133 -103.406090
v 4.411932 -1.041133 -105.097046
v 5.466404 -1.041133 -106.675598
v 6.400360 -1.041133 -108.070793
v 7.163026 -1.041133 -109.211685
v 7.703623 -1.041133 -110.027313
v 7.971371 -1.041133 -110.446747
v 8.341973 -1.041133 -110.540787
v 9.116598 -1.041133 -110.367493
v 10.211232 -1.041133 -109.972473
v 11.541863 -1.041133 -109.401314
v 13.024477 -1.041133 -108.699623
v 14.575061 -1.041133 -107.912994
v 16.109600 -1.041133 -107.087021
v 17.544083 -1.041133 -106.267311
v 18.794497 -1.041133 -105.499451
v 19.776827 -1.041133 -104.829048
v 20.407061 -1.041133 -104.301697
v 20.601187 -1.041133 -103.962990
v 20.454105 -1.041133 -103.584274
v 20.122551 -1.041133 -102.872643
v 19.640087 -1.041133 -101.886925
v 19.040277 -1.041133 -100.685944
v 18.356688 -1.041133 -99.328537
v 17.622879 -1.041133 -97.873520
v 16.872417 -1.041133 -96.379730
v 16.138866 -1.041133 -94.905991
v 15.455790 -1.041133 -93.511139
v 14.856750 -1.041133 -92.253990
v 14.375314 -1.041133 -91.193375
v 14.045043 -1.041133 -90.388123
v 13.705265 -1.041133 -89.396347
v 13.197550 -1.041133 -87.817520
v 12.558829 -1.041133 -85.772568
v 11.826034 -1.041133 -83.382370
v 11.036095 -1.041133 -80.767853
v 9.866016 -1.041133 -72.778305
v 9.508775 -1.041133 -71.356720
v 9.352905 -1.041133 -70.557114
v 9.885447 -1.041135 -61.993484
vn 0.0000 1.0000 0.0000
vn 0.0000 -1.0000 0.0000
vn 0.9981 0.0000 -0.0621
vn 0.4740 0.0000 -0.8805
vn -0.9570 0.0000 -0.2901
vn -0.0076 0.0000 1.0000
vn 0.4961 0.0000 -0.8682
vn -0.9526 0.0000 -0.3042
vn 0.5233 0.0000 -0.8522
vn -0.9488 0.0000 -0.3159
vn 0.5637 0.0000 -0.8260
vn -0.9451 0.0000 -0.3267
vn 0.6417 0.0000 -0.7669
vn -0.9412 0.0000 -0.3377
vn 0.8676 0.0000 -0.4973
vn -0.9364 0.0000 -0.3509
vn 0.9322 0.0000 0.3620
vn -0.9292 0.0000 -0.3696
vn 0.9064 0.0000 0.4223
vn -0.9143 0.0000 -0.4051
vn 0.8982 0.0000 0.4396
vn -0.8784 0.0000 -0.4779
vn 0.8946 0.0000 0.4468
vn -0.8581 0.0000 -0.5134
vn 0.8931 0.0000 0.4498
vn -0.8477 0.0000 -0.5304
vn -0.9997 0.0000 -0.0259
vn 0.8929 0.0000 0.4503
vn -0.8415 0.0000 -0.5402
vn -0.9964 0.0000 -0.0848
vn 0.8936 0.0000 0.4489
vn -0.8374 0.0000 -0.5465
vn -0.9918 0.0000 -0.1275
vn 0.8952 0.0000 0.4456
vn -0.8347 0.0000 -0.5508
vn -0.9872 0.0000 -0.1595
vn 0.8981 0.0000 0.4398
vn -0.8328 0.0000 -0.5536
vn -0.9829 0.0000 -0.1841
vn 0.9028 0.0000 0.4302
vn -0.8315 0.0000 -0.5555
vn -0.9792 0.0000 -0.2031
vn 0.9106 0.0000 0.4133
vn -0.8310 0.0000 -0.5563
vn -0.9760 0.0000 -0.2178
vn 0.9252 0.0000 0.3795
vn -0.8314 0.0000 -0.5557
vn -0.9735 0.0000 -0.2288
vn 0.9460 0.0000 0.3241
vn -0.8335 0.0000 -0.5525
vn -0.9718 0.0000 -0.2359
vn 0.9520 0.0000 0.3061
vn -0.8429 0.0000 -0.5381
vn -0.9713 0.0000 -0.2377
vn 0.9545 0.0000 0.2981
vn -0.2459 0.0000 -0.9693
vn -0.9735 0.0000 -0.2289
vn 0.9561 0.0000 0.2931
vn 0.2183 0.0000 -0.9759
vn -0.9848 0.0000 -0.1739
vn 0.9573 0.0000 0.2892
vn 0.3394 0.0000 -0.9406
vn -0.9951 0.0000 -0.0990
vn 0.9894 0.0000 0.1449
vn 0.3944 0.0000 -0.9189
vn -0.9804 0.0000 -0.1972
vn 0.9698 0.0000 0.2437
vn 0.4278 0.0000 -0.9039
vn -0.9698 0.0000 -0.2438
vn 0.9815 0.0000 0.1913
vn 0.4524 0.0000 -0.8918
vn -0.9625 0.0000 -0.2713
vn 0.5233 0.0000 -0.8521
vn 0.8676 0.0000 -0.4972
vn -0.8581 0.0000 -0.5135
vn 0.9027 0.0000 0.4302
vn -0.2460 0.0000 -0.9693
usemtl None
s off
f 43//1 32//1 55//1
f 125//2 102//2 113//2
f 140//3 69//3 70//3
f 114//4 43//4 44//4
f 88//5 17//5 18//5
f 71//6 70//6 1//6
f 115//7 44//7 45//7
f 89//8 18//8 19//8
f 116//9 45//9 46//9
f 90//10 19//10 20//10
f 117//11 46//11 47//11
f 91//12 20//12 21//12
f 118//13 47//13 48//13
f 92//14 21//14 22//14
f 119//15 48//15 49//15
f 93//16 22//16 23//16
f 120//17 49//17 50//17
f 94//18 23//18 24//18
f 121//19 50//19 51//19
f 95//20 24//20 25//20
f 122//21 51//21 52//21
f 96//22 25//22 26//22
f 123//23 52//23 53//23
f 97//24 26//24 27//24
f 124//25 53//25 54//25
f 98//26 27//26 28//26
f 72//27 1//27 2//27
f 125//28 54//28 55//28
f 99//29 28//29 29//29
f 73//30 2//30 3//30
f 126//31 55//31 56//31
f 100//32 29//32 30//32
f 74//33 3//33 4//33
f 127//34 56//34 57//34
f 101//35 30//35 31//35
f 75//36 4//36 5//36
f 128//37 57//37 58//37
f 102//38 31//38 32//38
f 76//39 5//39 6//39
f 129//40 58//40 59//40
f 103//41 32//41 33//41
f 77//42 6//42 7//42
f 130//43 59//43 60//43
f 104//44 33//44 34//44
f 78//45 7//45 8//45
f 131//46 60//46 61//46
f 105//47 34//47 35//47
f 79//48 8//48 9//48
f 132//49 61//49 62//49
f 106//50 35//50 36//50
f 80//51 9//51 10//51
f 133//52 62//52 63//52
f 107//53 36//53 37//53
f 81//54 10//54 11//54
f 134//55 63//55 64//55
f 108//56 37//56 38//56
f 82//57 11//57 12//57
f 135//58 64//58 65//58
f 109//59 38//59 39//59
f 83//60 12//60 13//60
f 136//61 65//61 66//61
f 110//62 39//62 40//62
f 84//63 13//63 14//63
f 137//64 66//64 67//64
f 111//65 40//65 41//65
f 85//66 14//66 15//66
f 138//67 67//67 68//67
f 112//68 41//68 42//68
f 86//69 15//69 16//69
f 139//70 68//70 69//70
f 113//71 42//71 43//71
f 87//72 16//72 17//72
f 2//1 1//1 70//1
f 2//1 70//1 3//1
f 70//1 69//1 6//1
f 4//1 70//1 5//1
f 4//1 3//1 70//1
f 6//1 5//1 70//1
f 8//1 7//1 69//1
f 7//1 6//1 69//1
f 10//1 9//1 69//1
f 9//1 8//1 69//1
f 11//1 10//1 69//1
f 68//1 67//1 16//1
f 67//1 66//1 18//1
f 14//1 69//1 68//1
f 12//1 69//1 13//1
f 12//1 11//1 69//1
f 69//1 14//1 13//1
f 66//1 65//1 20//1
f 14//1 68//1 15//1
f 68//1 16//1 15//1
f 65//1 64//1 22//1
f 16//1 67//1 17//1
f 17//1 67//1 18//1
f 64//1 63//1 23//1
f 18//1 66//1 19//1
f 20//1 19//1 66//1
f 64//1 23//1 22//1
f 22//1 21//1 65//1
f 21//1 20//1 65//1
f 24//1 63//1 25//1
f 24//1 23//1 63//1
f 62//1 26//1 25//1
f 62//1 25//1 63//1
f 28//1 27//1 61//1
f 27//1 26//1 62//1
f 60//1 29//1 28//1
f 30//1 29//1 58//1
f 30//1 58//1 57//1
f 32//1 31//1 56//1
f 31//1 30//1 57//1
f 34//1 33//1 41//1
f 33//1 32//1 43//1
f 42//1 33//1 43//1
f 33//1 42//1 41//1
f 31//1 57//1 56//1
f 29//1 60//1 59//1
f 61//1 27//1 62//1
f 28//1 61//1 60//1
f 58//1 29//1 59//1
f 35//1 34//1 40//1
f 38//1 37//1 36//1
f 38//1 36//1 39//1
f 36//1 35//1 39//1
f 40//1 39//1 35//1
f 41//1 40//1 34//1
f 44//1 43//1 54//1
f 46//1 45//1 52//1
f 45//1 44//1 53//1
f 52//1 45//1 53//1
f 48//1 47//1 50//1
f 47//1 46//1 51//1
f 51//1 46//1 52//1
f 50//1 49//1 48//1
f 51//1 50//1 47//1
f 54//1 53//1 44//1
f 55//1 54//1 43//1
f 32//1 56//1 55//1
f 140//2 71//2 72//2
f 72//2 73//2 140//2
f 73//2 74//2 140//2
f 74//2 75//2 140//2
f 75//2 76//2 140//2
f 76//2 77//2 139//2
f 77//2 78//2 139//2
f 78//2 79//2 139//2
f 79//2 80//2 139//2
f 80//2 81//2 139//2
f 139//2 140//2 76//2
f 81//2 82//2 139//2
f 138//2 139//2 84//2
f 136//2 137//2 88//2
f 137//2 138//2 86//2
f 84//2 139//2 83//2
f 139//2 82//2 83//2
f 135//2 136//2 90//2
f 138//2 84//2 85//2
f 86//2 138//2 85//2
f 134//2 135//2 92//2
f 137//2 86//2 87//2
f 88//2 137//2 87//2
f 136//2 88//2 89//2
f 89//2 90//2 136//2
f 134//2 93//2 133//2
f 90//2 91//2 135//2
f 91//2 92//2 135//2
f 133//2 94//2 95//2
f 92//2 93//2 134//2
f 93//2 94//2 133//2
f 132//2 96//2 97//2
f 95//2 96//2 132//2
f 97//2 98//2 131//2
f 130//2 99//2 129//2
f 98//2 99//2 130//2
f 99//2 100//2 128//2
f 127//2 100//2 101//2
f 101//2 102//2 126//2
f 102//2 103//2 113//2
f 103//2 104//2 111//2
f 112//2 103//2 111//2
f 101//2 126//2 127//2
f 103//2 112//2 113//2
f 126//2 102//2 125//2
f 100//2 127//2 128//2
f 95//2 132//2 133//2
f 98//2 130//2 131//2
f 97//2 131//2 132//2
f 104//2 105//2 110//2
f 106//2 107//2 108//2
f 99//2 128//2 129//2
f 105//2 106//2 109//2
f 106//2 108//2 109//2
f 109//2 110//2 105//2
f 110//2 111//2 104//2
f 113//2 114//2 124//2
f 114//2 115//2 123//2
f 115//2 116//2 122//2
f 116//2 117//2 121//2
f 117//2 118//2 120//2
f 116//2 121//2 122//2
f 118//2 119//2 120//2
f 120//2 121//2 117//2
f 122//2 123//2 115//2
f 123//2 124//2 114//2
f 124//2 125//2 113//2
f 140//3 139//3 69//3
f 114//4 113//4 43//4
f 88//5 87//5 17//5
f 71//6 140//6 70//6
f 115//7 114//7 44//7
f 89//8 88//8 18//8
f 116//73 115//73 45//73
f 90//10 89//10 19//10
f 117//11 116//11 46//11
f 91//12 90//12 20//12
f 118//13 117//13 47//13
f 92//14 91//14 21//14
f 119//74 118//74 48//74
f 93//16 92//16 22//16
f 120//17 119//17 49//17
f 94//18 93//18 23//18
f 121//19 120//19 50//19
f 95//20 94//20 24//20
f 122//21 121//21 51//21
f 96//22 95//22 25//22
f 123//23 122//23 52//23
f 97//75 96//75 26//75
f 124//25 123//25 53//25
f 98//26 97//26 27//26
f 72//27 71//27 1//27
f 125//28 124//28 54//28
f 99//29 98//29 28//29
f 73//30 72//30 2//30
f 126//31 125//31 55//31
f 100//32 99//32 29//32
f 74//33 73//33 3//33
f 127//34 126//34 56//34
f 101//35 100//35 30//35
f 75//36 74//36 4//36
f 128//37 127//37 57//37
f 102//38 101//38 31//38
f 76//39 75//39 5//39
f 129//76 128//76 58//76
f 103//41 102//41 32//41
f 77//42 76//42 6//42
f 130//43 129//43 59//43
f 104//44 103//44 33//44
f 78//45 77//45 7//45
f 131//46 130//46 60//46
f 105//47 104//47 34//47
f 79//48 78//48 8//48
f 132//49 131//49 61//49
f 106//50 105//50 35//50
f 80//51 79//51 9//51
f 133//52 132//52 62//52
f 107//53 106//53 36//53
f 81//54 80//54 10//54
f 134//55 133//55 63//55
f 108//77 107//77 37//77
f 82//57 81//57 11//57
f 135//58 134//58 64//58
f 109//59 108//59 38//59
f 83//60 82//60 12//60
f 136//61 135//61 65//61
f 110//62 109//62 39//62
f 84//63 83//63 13//63
f 137//64 136//64 66//64
f 111//65 110//65 40//65
f 85//66 84//66 14//66
f 138//67 137//67 67//67
f 112//68 111//68 41//68
f 86//69 85//69 15//69
f 139//70 138//70 68//70
f 113//71 112//71 42//71
f 87//72 86//72 16//72
