# Blender v2.80 (sub 75) OBJ File: 'TrainLights.blend'
# www.blender.org
mtllib TrainTrafficLightBarrier_Inversed.mtl
v 0.062659 1.639341 0.104461
v -5.304770 1.639339 0.104462
v 0.062659 1.826598 0.104461
v -5.304770 1.826596 0.104461
v 0.062659 1.639341 0.044516
v -5.304770 1.639339 0.044516
v 0.062659 1.826598 0.044516
v -5.304770 1.826596 0.044516
v -0.224199 1.639341 0.104461
v -0.224199 1.826598 0.104461
v -0.224199 1.639341 0.044516
v -0.224199 1.826598 0.044516
v -0.647580 1.639340 0.104461
v -1.070961 1.639340 0.104461
v -1.494342 1.639340 0.104461
v -1.917723 1.639340 0.104461
v -2.341104 1.639340 0.104461
v -2.764485 1.639340 0.104461
v -3.187865 1.639340 0.104461
v -3.611246 1.639339 0.104461
v -4.034627 1.639339 0.104461
v -4.458008 1.639339 0.104462
v -4.881389 1.639339 0.104462
v -0.647580 1.639340 0.044516
v -1.070961 1.639340 0.044516
v -1.494342 1.639340 0.044516
v -1.917723 1.639340 0.044516
v -2.341104 1.639340 0.044516
v -2.764485 1.639340 0.044516
v -3.187865 1.639340 0.044516
v -3.611246 1.639339 0.044516
v -4.034627 1.639339 0.044516
v -4.458008 1.639339 0.044516
v -4.881389 1.639339 0.044516
v -4.881389 1.826596 0.104461
v -4.458008 1.826597 0.104461
v -4.034627 1.826597 0.104461
v -3.611246 1.826597 0.104461
v -3.187865 1.826597 0.104461
v -2.764485 1.826597 0.104461
v -2.341104 1.826597 0.104461
v -1.917723 1.826597 0.104461
v -1.494342 1.826598 0.104461
v -1.070961 1.826598 0.104461
v -0.647580 1.826598 0.104461
v -4.881389 1.826596 0.044516
v -4.458008 1.826596 0.044516
v -4.034627 1.826597 0.044516
v -3.611246 1.826597 0.044516
v -3.187865 1.826597 0.044516
v -2.764485 1.826597 0.044516
v -2.341104 1.826597 0.044516
v -1.917723 1.826597 0.044516
v -1.494342 1.826597 0.044516
v -1.070961 1.826598 0.044516
v -0.647580 1.826598 0.044516
vt 0.921120 1.000000
vt 1.000000 0.000000
vt 0.921120 0.000000
vt 1.000000 0.000000
vt 0.921120 1.000000
vt 0.921120 0.000000
vt 1.000000 1.000000
vt 0.000000 0.000000
vt 0.000000 1.000000
vt 0.000000 1.000000
vt 0.053444 1.000000
vt 0.053444 1.000000
vt 0.053444 0.000000
vt 0.000000 0.000000
vt 0.132324 1.000000
vt 0.132324 1.000000
vt 0.053444 0.000000
vt 1.000000 1.000000
vt 0.842241 1.000000
vt 0.763361 1.000000
vt 0.842241 1.000000
vt 0.684481 1.000000
vt 0.763361 1.000000
vt 0.605602 1.000000
vt 0.684481 1.000000
vt 0.526722 1.000000
vt 0.605602 1.000000
vt 0.447842 1.000000
vt 0.526722 1.000000
vt 0.368963 1.000000
vt 0.447842 1.000000
vt 0.290083 1.000000
vt 0.368963 1.000000
vt 0.211203 1.000000
vt 0.290083 1.000000
vt 0.211203 1.000000
vt 0.132324 0.000000
vt 0.211203 0.000000
vt 0.132324 0.000000
vt 0.290083 0.000000
vt 0.211203 0.000000
vt 0.368963 0.000000
vt 0.290083 0.000000
vt 0.447842 0.000000
vt 0.368963 0.000000
vt 0.526722 0.000000
vt 0.447842 0.000000
vt 0.605602 0.000000
vt 0.526722 0.000000
vt 0.684481 0.000000
vt 0.605602 0.000000
vt 0.763361 0.000000
vt 0.684481 0.000000
vt 0.842241 0.000000
vt 0.763361 0.000000
vt 0.842241 0.000000
vn 0.0000 0.0000 1.0000
vn -0.0000 -0.0000 -1.0000
vn -1.0000 0.0000 0.0000
vn 1.0000 0.0000 0.0000
vn -0.0000 1.0000 0.0000
vn 0.0000 -1.0000 0.0000
usemtl M_BarrierWhite
s off
f 35/1/1 2/2/1 23/3/1
f 6/4/2 46/5/2 34/6/2
f 4/7/3 6/4/3 2/2/3
usemtl M_Iron
f 1/8/4 7/9/4 3/10/4
f 3/10/5 12/11/5 10/12/5
usemtl M_BarrierWhite
f 2/2/6 34/6/6 23/3/6
usemtl M_Iron
f 9/13/6 5/14/6 1/8/6
usemtl M_BarrierRed
f 10/12/5 56/15/5 45/16/5
usemtl M_Iron
f 11/17/2 7/9/2 5/14/2
f 3/10/1 9/13/1 1/8/1
usemtl M_BarrierWhite
f 35/1/5 8/18/5 4/7/5
usemtl M_BarrierRed
f 36/19/5 46/5/5 35/1/5
usemtl M_BarrierWhite
f 37/20/5 47/21/5 36/19/5
usemtl M_BarrierRed
f 38/22/5 48/23/5 37/20/5
usemtl M_BarrierWhite
f 39/24/5 49/25/5 38/22/5
usemtl M_BarrierRed
f 40/26/5 50/27/5 39/24/5
usemtl M_BarrierWhite
f 41/28/5 51/29/5 40/26/5
usemtl M_BarrierRed
f 42/30/5 52/31/5 41/28/5
usemtl M_BarrierWhite
f 43/32/5 53/33/5 42/30/5
usemtl M_BarrierRed
f 44/34/5 54/35/5 43/32/5
usemtl M_BarrierWhite
f 45/16/5 55/36/5 44/34/5
usemtl M_BarrierRed
f 13/37/6 11/17/6 9/13/6
usemtl M_BarrierWhite
f 14/38/6 24/39/6 13/37/6
usemtl M_BarrierRed
f 15/40/6 25/41/6 14/38/6
usemtl M_BarrierWhite
f 16/42/6 26/43/6 15/40/6
usemtl M_BarrierRed
f 17/44/6 27/45/6 16/42/6
usemtl M_BarrierWhite
f 18/46/6 28/47/6 17/44/6
usemtl M_BarrierRed
f 19/48/6 29/49/6 18/46/6
usemtl M_BarrierWhite
f 20/50/6 30/51/6 19/48/6
usemtl M_BarrierRed
f 21/52/6 31/53/6 20/50/6
usemtl M_BarrierWhite
f 22/54/6 32/55/6 21/52/6
usemtl M_BarrierRed
f 23/3/6 33/56/6 22/54/6
f 24/39/2 12/11/2 11/17/2
usemtl M_BarrierWhite
f 25/41/2 56/15/2 24/39/2
usemtl M_BarrierRed
f 26/43/2 55/36/2 25/41/2
usemtl M_BarrierWhite
f 27/45/2 54/35/2 26/43/2
usemtl M_BarrierRed
f 28/47/2 53/33/2 27/45/2
usemtl M_BarrierWhite
f 29/49/2 52/31/2 28/47/2
usemtl M_BarrierRed
f 30/51/2 51/29/2 29/49/2
usemtl M_BarrierWhite
f 31/53/2 50/27/2 30/51/2
usemtl M_BarrierRed
f 32/55/2 49/25/2 31/53/2
usemtl M_BarrierWhite
f 33/56/2 48/23/2 32/55/2
usemtl M_BarrierRed
f 34/6/2 47/21/2 33/56/2
f 10/12/1 13/37/1 9/13/1
usemtl M_BarrierWhite
f 45/16/1 14/38/1 13/37/1
usemtl M_BarrierRed
f 44/34/1 15/40/1 14/38/1
usemtl M_BarrierWhite
f 43/32/1 16/42/1 15/40/1
usemtl M_BarrierRed
f 42/30/1 17/44/1 16/42/1
usemtl M_BarrierWhite
f 41/28/1 18/46/1 17/44/1
usemtl M_BarrierRed
f 40/26/1 19/48/1 18/46/1
usemtl M_BarrierWhite
f 39/24/1 20/50/1 19/48/1
usemtl M_BarrierRed
f 38/22/1 21/52/1 20/50/1
usemtl M_BarrierWhite
f 37/20/1 22/54/1 21/52/1
usemtl M_BarrierRed
f 36/19/1 23/3/1 22/54/1
usemtl M_BarrierWhite
f 35/1/1 4/7/1 2/2/1
f 6/4/2 8/18/2 46/5/2
f 4/7/3 8/18/3 6/4/3
usemtl M_Iron
f 1/8/4 5/14/4 7/9/4
f 3/10/5 7/9/5 12/11/5
usemtl M_BarrierWhite
f 2/2/6 6/4/6 34/6/6
usemtl M_Iron
f 9/13/6 11/17/6 5/14/6
usemtl M_BarrierRed
f 10/12/5 12/11/5 56/15/5
usemtl M_Iron
f 11/17/2 12/11/2 7/9/2
f 3/10/1 10/12/1 9/13/1
usemtl M_BarrierWhite
f 35/1/5 46/5/5 8/18/5
usemtl M_BarrierRed
f 36/19/5 47/21/5 46/5/5
usemtl M_BarrierWhite
f 37/20/5 48/23/5 47/21/5
usemtl M_BarrierRed
f 38/22/5 49/25/5 48/23/5
usemtl M_BarrierWhite
f 39/24/5 50/27/5 49/25/5
usemtl M_BarrierRed
f 40/26/5 51/29/5 50/27/5
usemtl M_BarrierWhite
f 41/28/5 52/31/5 51/29/5
usemtl M_BarrierRed
f 42/30/5 53/33/5 52/31/5
usemtl M_BarrierWhite
f 43/32/5 54/35/5 53/33/5
usemtl M_BarrierRed
f 44/34/5 55/36/5 54/35/5
usemtl M_BarrierWhite
f 45/16/5 56/15/5 55/36/5
usemtl M_BarrierRed
f 13/37/6 24/39/6 11/17/6
usemtl M_BarrierWhite
f 14/38/6 25/41/6 24/39/6
usemtl M_BarrierRed
f 15/40/6 26/43/6 25/41/6
usemtl M_BarrierWhite
f 16/42/6 27/45/6 26/43/6
usemtl M_BarrierRed
f 17/44/6 28/47/6 27/45/6
usemtl M_BarrierWhite
f 18/46/6 29/49/6 28/47/6
usemtl M_BarrierRed
f 19/48/6 30/51/6 29/49/6
usemtl M_BarrierWhite
f 20/50/6 31/53/6 30/51/6
usemtl M_BarrierRed
f 21/52/6 32/55/6 31/53/6
usemtl M_BarrierWhite
f 22/54/6 33/56/6 32/55/6
usemtl M_BarrierRed
f 23/3/6 34/6/6 33/56/6
f 24/39/2 56/15/2 12/11/2
usemtl M_BarrierWhite
f 25/41/2 55/36/2 56/15/2
usemtl M_BarrierRed
f 26/43/2 54/35/2 55/36/2
usemtl M_BarrierWhite
f 27/45/2 53/33/2 54/35/2
usemtl M_BarrierRed
f 28/47/2 52/31/2 53/33/2
usemtl M_BarrierWhite
f 29/49/2 51/29/2 52/31/2
usemtl M_BarrierRed
f 30/51/2 50/27/2 51/29/2
usemtl M_BarrierWhite
f 31/53/2 49/25/2 50/27/2
usemtl M_BarrierRed
f 32/55/2 48/23/2 49/25/2
usemtl M_BarrierWhite
f 33/56/2 47/21/2 48/23/2
usemtl M_BarrierRed
f 34/6/2 46/5/2 47/21/2
f 10/12/1 45/16/1 13/37/1
usemtl M_BarrierWhite
f 45/16/1 44/34/1 14/38/1
usemtl M_BarrierRed
f 44/34/1 43/32/1 15/40/1
usemtl M_BarrierWhite
f 43/32/1 42/30/1 16/42/1
usemtl M_BarrierRed
f 42/30/1 41/28/1 17/44/1
usemtl M_BarrierWhite
f 41/28/1 40/26/1 18/46/1
usemtl M_BarrierRed
f 40/26/1 39/24/1 19/48/1
usemtl M_BarrierWhite
f 39/24/1 38/22/1 20/50/1
usemtl M_BarrierRed
f 38/22/1 37/20/1 21/52/1
usemtl M_BarrierWhite
f 37/20/1 36/19/1 22/54/1
usemtl M_BarrierRed
f 36/19/1 35/1/1 23/3/1
