# Blender v2.80 (sub 75) OBJ File: 'IntersectionRoads.blend'
# www.blender.org
mtllib Bridge.mtl
o Bridge_BezierCircle.000
v 9.885447 -0.000002 -61.993484
v -10.777760 -0.000000 -62.149815
v -10.024453 -0.000001 -44.698704
v 11.636069 -0.000001 -44.367580
v 9.885447 -1.105059 -61.993484
v -10.777760 -1.105056 -62.149815
v -10.024453 -1.105057 -44.698704
v 11.636069 -1.105057 -44.367580
vn -0.0000 1.0000 -0.0000
vn -0.0000 -1.0000 -0.0000
vn 0.0076 0.0000 -1.0000
vn 0.9951 0.0000 -0.0988
vn -0.9991 0.0000 0.0431
vn -0.0153 0.0000 0.9999
usemtl None
s off
f 1//1 3//1 4//1
f 5//2 7//2 6//2
f 1//3 6//3 2//3
f 8//4 1//4 4//4
f 6//5 3//5 2//5
f 7//6 4//6 3//6
f 1//1 2//1 3//1
f 5//2 8//2 7//2
f 1//3 5//3 6//3
f 8//4 5//4 1//4
f 6//5 7//5 3//5
f 7//6 8//6 4//6
