# Blender v2.80 (sub 75) OBJ File: 'IntersectionRoads.blend'
# www.blender.org
mtllib IntersectionRoads3.mtl
o Roads_North_BezierCircle.002
v -10.777760 0.000000 -62.149815
v -10.751163 0.000000 -63.177193
v -10.657057 0.000000 -64.282913
v -10.508758 0.000000 -65.436440
v -10.319577 0.000000 -66.607208
v -10.102831 0.000000 -67.764687
v -9.871832 0.000000 -68.878311
v -9.639895 0.000000 -69.917542
v -9.420335 0.000000 -70.851822
v -9.226463 0.000000 -71.650604
v -9.071596 0.000000 -72.283340
v -8.969047 0.000000 -72.719482
v -8.932131 0.000000 -72.928482
v -8.826116 0.000000 -73.994064
v -8.523927 0.000000 -75.496307
v -8.059045 0.000000 -77.345825
v -7.464955 0.000000 -79.453262
v -6.775136 0.000000 -81.729240
v -6.023070 0.000000 -84.084396
v -5.242242 0.000000 -86.429344
v -4.466132 0.000000 -88.674728
v -3.728222 0.000000 -90.731171
v -3.061995 0.000000 -92.509308
v -2.500932 0.000000 -93.919754
v -2.078515 0.000000 -94.873154
v -1.602195 0.000000 -95.748550
v -0.890952 0.000000 -96.937248
v 0.004439 0.000000 -98.368301
v 1.033200 0.000000 -99.970764
v 2.144553 0.000000 -101.673676
v 3.287723 0.000000 -103.406090
v 4.411932 0.000000 -105.097046
v 5.466404 0.000000 -106.675598
v 6.400360 0.000000 -108.070793
v 7.163026 0.000000 -109.211685
v 7.703623 0.000000 -110.027313
v 7.971371 0.000000 -110.446747
v 8.341973 0.000000 -110.540787
v 9.116598 0.000000 -110.367493
v 10.211232 0.000000 -109.972473
v 11.541863 0.000000 -109.401314
v 13.024477 0.000000 -108.699623
v 14.575061 0.000000 -107.912994
v 16.109600 0.000000 -107.087021
v 17.544083 0.000000 -106.267311
v 18.794497 0.000000 -105.499451
v 19.776827 0.000000 -104.829048
v 20.407061 0.000000 -104.301697
v 20.601187 0.000000 -103.962990
v 20.454105 0.000000 -103.584274
v 20.122551 0.000000 -102.872643
v 19.640087 0.000000 -101.886925
v 19.040277 0.000000 -100.685944
v 18.356688 0.000000 -99.328537
v 17.622879 0.000000 -97.873520
v 16.872417 0.000000 -96.379730
v 16.138866 0.000000 -94.905991
v 15.455790 0.000000 -93.511139
v 14.856750 0.000000 -92.253990
v 14.375314 0.000000 -91.193375
v 14.045043 0.000000 -90.388123
v 13.705265 0.000000 -89.396347
v 13.197550 0.000000 -87.817520
v 12.558829 0.000000 -85.772568
v 11.826034 0.000000 -83.382370
v 11.036095 0.000000 -80.767853
v 9.866016 0.000000 -72.778305
v 9.508775 0.000000 -71.356720
v 9.352905 0.000000 -70.557114
v 9.885447 -0.000002 -61.993484
vn 0.0000 1.0000 0.0000
usemtl None
s off
f 43//1 32//1 55//1
f 2//1 1//1 70//1
f 2//1 70//1 3//1
f 70//1 69//1 6//1
f 4//1 70//1 5//1
f 4//1 3//1 70//1
f 6//1 5//1 70//1
f 8//1 7//1 69//1
f 7//1 6//1 69//1
f 10//1 9//1 69//1
f 9//1 8//1 69//1
f 11//1 10//1 69//1
f 68//1 67//1 16//1
f 67//1 66//1 18//1
f 14//1 69//1 68//1
f 12//1 69//1 13//1
f 12//1 11//1 69//1
f 69//1 14//1 13//1
f 66//1 65//1 20//1
f 14//1 68//1 15//1
f 68//1 16//1 15//1
f 65//1 64//1 22//1
f 16//1 67//1 17//1
f 17//1 67//1 18//1
f 64//1 63//1 23//1
f 18//1 66//1 19//1
f 20//1 19//1 66//1
f 64//1 23//1 22//1
f 22//1 21//1 65//1
f 21//1 20//1 65//1
f 24//1 63//1 25//1
f 24//1 23//1 63//1
f 62//1 26//1 25//1
f 62//1 25//1 63//1
f 28//1 27//1 61//1
f 27//1 26//1 62//1
f 60//1 29//1 28//1
f 30//1 29//1 58//1
f 30//1 58//1 57//1
f 32//1 31//1 56//1
f 31//1 30//1 57//1
f 34//1 33//1 41//1
f 33//1 32//1 43//1
f 42//1 33//1 43//1
f 33//1 42//1 41//1
f 31//1 57//1 56//1
f 29//1 60//1 59//1
f 61//1 27//1 62//1
f 28//1 61//1 60//1
f 58//1 29//1 59//1
f 35//1 34//1 40//1
f 38//1 37//1 36//1
f 38//1 36//1 39//1
f 36//1 35//1 39//1
f 40//1 39//1 35//1
f 41//1 40//1 34//1
f 44//1 43//1 54//1
f 46//1 45//1 52//1
f 45//1 44//1 53//1
f 52//1 45//1 53//1
f 48//1 47//1 50//1
f 47//1 46//1 51//1
f 51//1 46//1 52//1
f 50//1 49//1 48//1
f 51//1 50//1 47//1
f 54//1 53//1 44//1
f 55//1 54//1 43//1
f 32//1 56//1 55//1
