# Blender v2.79 (sub 0) OBJ File: 'IntersectionRoads.blend'
# www.blender.org
o BezierCircle.001_CUBezierCircle.004
v 61.161304 0.000000 68.591049
v 58.485104 0.000000 46.424126
v 56.673683 0.000000 31.517349
v 55.944630 0.000000 25.689598
v 55.550587 0.000000 24.367144
v 54.867130 0.000000 23.131390
v 53.950199 0.000000 21.987890
v 52.855736 0.000000 20.942202
v 51.639679 0.000000 19.999880
v 50.357971 0.000000 19.166479
v 49.066555 0.000000 18.447556
v 47.821373 0.000000 17.848665
v 46.678364 0.000000 17.375362
v 45.693470 0.000000 17.033203
v 44.922630 0.000000 16.827744
v 44.421791 0.000000 16.764538
v 42.456692 0.000000 16.818373
v 39.896545 0.000000 16.884918
v 36.873863 0.000000 16.958811
v 33.521156 0.000000 17.034687
v 29.970932 0.000000 17.107185
v 26.355701 0.000000 17.170944
v 22.807976 0.000000 17.220600
v 19.460264 0.000000 17.250790
v 16.445078 0.000000 17.256151
v 13.894927 0.000000 17.231323
v 11.942322 0.000000 17.170942
v -22.172523 0.000000 17.848454
v -22.674374 0.000000 17.663927
v -23.343769 0.000000 17.258076
v -24.146507 0.000000 16.667177
v -25.048382 0.000000 15.927505
v -26.015190 0.000000 15.075340
v -27.012732 0.000000 14.146958
v -28.006802 0.000000 13.178637
v -28.963196 0.000000 12.206652
v -36.089706 0.000000 9.042774
v -38.912704 0.000000 9.208763
v -42.142578 0.000000 9.422538
v -45.612724 0.000000 9.666490
v -49.156544 0.000000 9.923008
v -52.607441 0.000000 10.174483
v -55.798817 0.000000 10.403306
v -58.564072 0.000000 10.591866
v -60.736603 0.000000 10.722555
v -62.149815 0.000000 10.777762
v -63.177193 0.000000 10.751165
v -64.282913 0.000000 10.657060
v -65.436440 0.000000 10.508760
v -66.607208 0.000000 10.319580
v -67.764687 0.000000 10.102834
v -68.878311 0.000000 9.871835
v -69.917542 0.000000 9.639898
v -70.851822 0.000000 9.420338
v -71.650604 0.000000 9.226466
v -72.283340 0.000000 9.071599
v -72.719482 0.000000 8.969049
v -72.928482 0.000000 8.932134
v -73.994064 0.000000 8.826118
v -75.496307 0.000000 8.523930
v -77.345825 0.000000 8.059049
v -79.453262 0.000000 7.464958
v -81.729240 0.000000 6.775139
v -84.084396 0.000000 6.023074
v -86.429344 0.000000 5.242246
v -88.674728 0.000000 4.466136
v -90.731171 0.000000 3.728226
v -92.509308 0.000000 3.061999
v -93.919754 0.000000 2.500936
v -94.873154 0.000000 2.078519
v -95.748550 0.000000 1.602199
v -96.937248 0.000000 0.890956
v -98.368301 0.000000 -0.004435
v -99.970764 0.000000 -1.033195
v -101.673676 0.000000 -2.144549
v -103.406090 0.000000 -3.287719
v -105.097046 0.000000 -4.411927
v -106.675598 0.000000 -5.466399
v -108.070793 0.000000 -6.400355
v -109.211685 0.000000 -7.163021
v -110.027313 0.000000 -7.703618
v -110.446747 0.000000 -7.971366
v -110.540787 0.000000 -8.341969
v -110.367493 0.000000 -9.116593
v -109.972473 0.000000 -10.211227
v -109.401314 0.000000 -11.541859
v -108.699623 0.000000 -13.024472
v -107.912994 0.000000 -14.575056
v -107.087021 0.000000 -16.109596
v -106.267311 0.000000 -17.544079
v -105.499451 0.000000 -18.794493
v -104.829048 0.000000 -19.776823
v -104.301697 0.000000 -20.407057
v -103.962990 0.000000 -20.601183
v -103.584274 0.000000 -20.454102
v -102.872643 0.000000 -20.122547
v -101.886925 0.000000 -19.640083
v -100.685944 0.000000 -19.040274
v -99.328537 0.000000 -18.356684
v -97.873520 0.000000 -17.622875
v -96.379730 0.000000 -16.872414
v -94.905991 0.000000 -16.138863
v -93.511139 0.000000 -15.455786
v -92.253990 0.000000 -14.856747
v -91.193375 0.000000 -14.375310
v -90.388123 0.000000 -14.045039
v -89.396347 0.000000 -13.705261
v -87.817520 0.000000 -13.197546
v -85.772568 0.000000 -12.558825
v -83.382370 0.000000 -11.826030
v -80.767853 0.000000 -11.036091
v -72.778305 0.000000 -9.866014
v -71.356720 0.000000 -9.508772
v -70.557114 0.000000 -9.352902
v -65.384445 0.000000 -10.060280
v -48.963638 0.000000 -11.571003
v -45.064083 0.000000 -11.765266
v -41.346397 0.000000 -11.953037
v -37.980301 0.000000 -12.120857
v -35.135498 0.000000 -12.255268
v -32.981701 0.000000 -12.342810
v -31.688631 0.000000 -12.370024
v -30.880199 0.000000 -12.467865
v -28.909496 0.000000 -12.741266
v -25.994759 0.000000 -13.155762
v -22.354231 0.000000 -13.676891
v 14.686136 0.000000 -15.049000
v 19.123528 0.000000 -15.680008
v 23.631989 0.000000 -16.314260
v 27.993279 0.000000 -16.917295
v 31.989159 0.000000 -17.454649
v 35.401386 0.000000 -17.891861
v 38.011723 0.000000 -18.194466
v 39.601936 0.000000 -18.327999
v 40.169178 0.000000 -18.462090
v 40.843811 0.000000 -18.808628
v 41.613770 0.000000 -19.131277
v 42.414581 0.000000 -19.820719
v 43.234177 0.000000 -20.640617
v 44.043018 0.000000 -21.563644
v 44.811569 0.000000 -22.562468
v 45.510292 0.000000 -23.609756
v 46.109650 0.000000 -24.678183
v 46.580105 0.000000 -25.740416
v 46.892120 0.000000 -26.769125
v 47.016159 0.000000 -27.736980
v 46.821911 0.000000 -30.586979
v 45.389160 0.000000 -48.167530
v 43.224545 0.000000 -74.489082
v 40.516273 0.000000 -107.367157
v 37.452557 0.000000 -144.617264
v 34.221603 0.000000 -184.054932
v 31.011625 0.000000 -223.495667
v 28.010832 0.000000 -260.754974
v 25.407434 0.000000 -293.648407
v 23.389643 0.000000 -319.991455
v 22.145666 0.000000 -337.599640
v 21.863712 0.000000 -344.288452
v 22.386677 0.000000 -344.772644
v 23.367994 0.000000 -345.221527
v 24.711702 0.000000 -345.632568
v 26.321838 0.000000 -346.003235
v 28.102438 0.000000 -346.330994
v 29.957541 0.000000 -346.613312
v 31.791182 0.000000 -346.847626
v 33.507397 0.000000 -347.031433
v 35.010227 0.000000 -347.162170
v 36.203705 0.000000 -347.237305
v 38.335983 0.000000 -347.310211
v 38.622868 0.000000 -347.266541
v 40.974167 0.000000 -325.639954
v 61.937450 0.000000 -75.100571
v 64.738762 0.000000 -48.563915
v 67.564064 0.000000 -32.917698
v 69.985168 0.000000 -29.232185
v 70.235901 0.000000 -28.640968
v 70.632393 0.000000 -27.977009
v 71.153664 0.000000 -27.264740
v 71.778740 0.000000 -26.528591
v 72.486649 0.000000 -25.792995
v 73.256401 0.000000 -25.082382
v 74.067024 0.000000 -24.421177
v 74.897545 0.000000 -23.833817
v 75.726982 0.000000 -23.344730
v 76.534363 0.000000 -22.978348
v 77.298706 0.000000 -22.759102
v 77.999046 0.000000 -22.711418
v 79.997711 0.000000 -23.088779
v 86.071884 0.000000 -23.728804
v 93.888832 0.000000 -25.262650
v 103.640984 0.000000 -27.177568
v 114.679062 0.000000 -29.342115
v 126.353775 0.000000 -31.624842
v 138.015839 0.000000 -33.894306
v 149.015961 0.000000 -36.019058
v 158.704849 0.000000 -37.867649
v 166.433228 0.000000 -39.308636
v 172.873688 0.000000 -40.960670
v 174.493866 0.000000 -32.644886
v 175.015350 0.000000 -30.452740
v 175.575089 0.000000 -28.150036
v 176.145828 0.000000 -25.862209
v 176.700348 0.000000 -23.714693
v 177.211395 0.000000 -21.832922
v 177.651749 0.000000 -20.342329
v 177.994171 0.000000 -19.368347
v 178.211426 0.000000 -19.036411
v 178.226776 0.000000 -16.844273
v 173.489944 0.000000 -15.450998
v 167.616425 0.000000 -13.896864
v 160.164597 0.000000 -11.925083
v 151.612930 0.000000 -9.660482
v 142.439896 0.000000 -7.227889
v 133.123962 0.000000 -4.752127
v 124.143593 0.000000 -2.358024
v 115.977249 0.000000 -0.170408
v 109.103401 0.000000 1.685896
v 104.000519 0.000000 3.086061
v 101.123962 0.000000 4.272945
v 99.391998 0.000000 4.861027
v 97.386780 0.000000 5.623025
v 95.186569 0.000000 6.516899
v 92.869614 0.000000 7.500607
v 90.514168 0.000000 8.532107
v 88.198486 0.000000 9.569358
v 86.000824 0.000000 10.570317
v 83.999428 0.000000 11.492944
v 82.272552 0.000000 12.295196
v 80.886055 0.000000 13.364635
v 79.942978 0.000000 13.800013
v 79.509178 0.000000 13.988892
v 78.922256 0.000000 14.408120
v 78.386505 0.000000 15.204155
v 77.902557 0.000000 16.303894
v 77.471054 0.000000 17.634232
v 77.092636 0.000000 19.122065
v 76.767944 0.000000 20.694290
v 76.497612 0.000000 22.277803
v 76.282280 0.000000 23.799501
v 76.122589 0.000000 25.186279
v 76.019180 0.000000 26.365034
v 75.985085 0.000000 26.833057
v 75.996147 0.000000 27.376455
v 76.328041 0.000000 31.228731
v 77.939308 0.000000 46.634895
v 80.288666 0.000000 69.188026
v 83.188507 0.000000 97.078285
v 86.451233 0.000000 128.495819
v 89.889244 0.000000 161.630798
v 93.314934 0.000000 194.673355
v 96.540710 0.000000 225.813660
v 99.378967 0.000000 253.241867
v 101.642105 0.000000 275.148132
v 103.142517 0.000000 289.722595
v 103.692604 0.000000 295.155365
v 103.397873 0.000000 295.292938
v 102.571548 0.000000 295.438843
v 101.319038 0.000000 295.580963
v 99.745750 0.000000 295.707153
v 97.957092 0.000000 295.805298
v 96.058464 0.000000 295.863251
v 94.155281 0.000000 295.868896
v 92.352943 0.000000 295.810089
v 90.756866 0.000000 295.674713
v 89.472450 0.000000 295.450653
v 88.605103 0.000000 295.125732
v 88.260231 0.000000 294.687866
v 87.592453 0.000000 289.028381
v 85.831169 0.000000 274.259277
v 83.193962 0.000000 252.199432
v 79.898422 0.000000 224.667709
v 76.162140 0.000000 193.482971
v 72.202698 0.000000 160.464081
v 68.237686 0.000000 127.429886
v 64.484695 0.000000 96.199257
vn 0.0000 1.0000 0.0000
s off
f 168//1 170//1 169//1
f 168//1 171//1 170//1
f 167//1 171//1 168//1
f 166//1 171//1 167//1
f 165//1 171//1 166//1
f 164//1 171//1 165//1
f 163//1 171//1 164//1
f 162//1 171//1 163//1
f 161//1 171//1 162//1
f 160//1 171//1 161//1
f 159//1 171//1 160//1
f 158//1 171//1 159//1
f 157//1 171//1 158//1
f 156//1 171//1 157//1
f 156//1 172//1 171//1
f 155//1 172//1 156//1
f 154//1 172//1 155//1
f 153//1 172//1 154//1
f 152//1 172//1 153//1
f 151//1 172//1 152//1
f 150//1 172//1 151//1
f 149//1 172//1 150//1
f 149//1 173//1 172//1
f 148//1 173//1 149//1
f 148//1 174//1 173//1
f 147//1 174//1 148//1
f 197//1 199//1 198//1
f 196//1 199//1 197//1
f 195//1 199//1 196//1
f 194//1 199//1 195//1
f 193//1 199//1 194//1
f 147//1 175//1 174//1
f 193//1 200//1 199//1
f 192//1 200//1 193//1
f 146//1 175//1 147//1
f 192//1 201//1 200//1
f 191//1 201//1 192//1
f 146//1 176//1 175//1
f 146//1 177//1 176//1
f 191//1 202//1 201//1
f 146//1 178//1 177//1
f 145//1 178//1 146//1
f 145//1 179//1 178//1
f 190//1 202//1 191//1
f 144//1 179//1 145//1
f 144//1 180//1 179//1
f 190//1 203//1 202//1
f 144//1 181//1 180//1
f 143//1 181//1 144//1
f 189//1 203//1 190//1
f 143//1 182//1 181//1
f 142//1 182//1 143//1
f 142//1 183//1 182//1
f 142//1 184//1 183//1
f 188//1 203//1 189//1
f 188//1 204//1 203//1
f 141//1 184//1 142//1
f 141//1 185//1 184//1
f 187//1 204//1 188//1
f 141//1 186//1 185//1
f 141//1 187//1 186//1
f 141//1 204//1 187//1
f 140//1 204//1 141//1
f 140//1 205//1 204//1
f 139//1 205//1 140//1
f 138//1 205//1 139//1
f 93//1 95//1 94//1
f 93//1 96//1 95//1
f 92//1 96//1 93//1
f 138//1 206//1 205//1
f 92//1 97//1 96//1
f 137//1 206//1 138//1
f 91//1 97//1 92//1
f 91//1 98//1 97//1
f 137//1 207//1 206//1
f 136//1 207//1 137//1
f 91//1 99//1 98//1
f 136//1 208//1 207//1
f 135//1 208//1 136//1
f 90//1 99//1 91//1
f 134//1 208//1 135//1
f 90//1 100//1 99//1
f 133//1 208//1 134//1
f 132//1 208//1 133//1
f 131//1 208//1 132//1
f 90//1 101//1 100//1
f 89//1 101//1 90//1
f 130//1 208//1 131//1
f 129//1 208//1 130//1
f 89//1 102//1 101//1
f 129//1 209//1 208//1
f 128//1 209//1 129//1
f 89//1 103//1 102//1
f 88//1 103//1 89//1
f 127//1 209//1 128//1
f 88//1 104//1 103//1
f 127//1 210//1 209//1
f 126//1 210//1 127//1
f 88//1 105//1 104//1
f 87//1 105//1 88//1
f 87//1 106//1 105//1
f 87//1 107//1 106//1
f 126//1 211//1 210//1
f 87//1 108//1 107//1
f 125//1 211//1 126//1
f 87//1 109//1 108//1
f 124//1 211//1 125//1
f 86//1 109//1 87//1
f 123//1 211//1 124//1
f 86//1 110//1 109//1
f 122//1 211//1 123//1
f 121//1 211//1 122//1
f 120//1 211//1 121//1
f 119//1 211//1 120//1
f 118//1 211//1 119//1
f 117//1 211//1 118//1
f 117//1 212//1 211//1
f 86//1 111//1 110//1
f 116//1 212//1 117//1
f 115//1 212//1 116//1
f 85//1 111//1 86//1
f 85//1 112//1 111//1
f 84//1 112//1 85//1
f 114//1 212//1 115//1
f 84//1 113//1 112//1
f 114//1 213//1 212//1
f 84//1 114//1 113//1
f 84//1 213//1 114//1
f 83//1 213//1 84//1
f 82//1 213//1 83//1
f 81//1 213//1 82//1
f 80//1 213//1 81//1
f 80//1 214//1 213//1
f 79//1 214//1 80//1
f 78//1 214//1 79//1
f 77//1 214//1 78//1
f 77//1 215//1 214//1
f 76//1 215//1 77//1
f 75//1 215//1 76//1
f 75//1 216//1 215//1
f 74//1 216//1 75//1
f 73//1 216//1 74//1
f 73//1 217//1 216//1
f 72//1 217//1 73//1
f 71//1 217//1 72//1
f 70//1 217//1 71//1
f 70//1 218//1 217//1
f 69//1 218//1 70//1
f 68//1 218//1 69//1
f 67//1 218//1 68//1
f 67//1 219//1 218//1
f 66//1 219//1 67//1
f 66//1 220//1 219//1
f 65//1 220//1 66//1
f 65//1 221//1 220//1
f 64//1 221//1 65//1
f 64//1 222//1 221//1
f 63//1 222//1 64//1
f 63//1 223//1 222//1
f 62//1 223//1 63//1
f 61//1 223//1 62//1
f 61//1 224//1 223//1
f 60//1 224//1 61//1
f 59//1 224//1 60//1
f 59//1 225//1 224//1
f 58//1 37//1 59//1
f 37//1 225//1 59//1
f 57//1 37//1 58//1
f 56//1 37//1 57//1
f 56//1 38//1 37//1
f 36//1 225//1 37//1
f 55//1 38//1 56//1
f 55//1 39//1 38//1
f 54//1 39//1 55//1
f 53//1 39//1 54//1
f 53//1 40//1 39//1
f 36//1 226//1 225//1
f 52//1 40//1 53//1
f 52//1 41//1 40//1
f 51//1 41//1 52//1
f 51//1 42//1 41//1
f 50//1 42//1 51//1
f 50//1 43//1 42//1
f 49//1 43//1 50//1
f 49//1 44//1 43//1
f 48//1 44//1 49//1
f 36//1 227//1 226//1
f 48//1 45//1 44//1
f 47//1 45//1 48//1
f 47//1 46//1 45//1
f 36//1 228//1 227//1
f 35//1 228//1 36//1
f 35//1 229//1 228//1
f 34//1 229//1 35//1
f 34//1 230//1 229//1
f 34//1 231//1 230//1
f 34//1 232//1 231//1
f 33//1 232//1 34//1
f 33//1 233//1 232//1
f 32//1 233//1 33//1
f 32//1 234//1 233//1
f 31//1 234//1 32//1
f 31//1 16//1 234//1
f 16//1 235//1 234//1
f 30//1 16//1 31//1
f 30//1 17//1 16//1
f 15//1 235//1 16//1
f 30//1 18//1 17//1
f 14//1 235//1 15//1
f 30//1 19//1 18//1
f 30//1 20//1 19//1
f 13//1 235//1 14//1
f 30//1 21//1 20//1
f 30//1 27//1 21//1
f 27//1 22//1 21//1
f 30//1 28//1 27//1
f 26//1 22//1 27//1
f 26//1 23//1 22//1
f 26//1 24//1 23//1
f 25//1 24//1 26//1
f 29//1 28//1 30//1
f 12//1 235//1 13//1
f 12//1 236//1 235//1
f 11//1 236//1 12//1
f 10//1 236//1 11//1
f 10//1 237//1 236//1
f 9//1 237//1 10//1
f 8//1 237//1 9//1
f 8//1 238//1 237//1
f 7//1 238//1 8//1
f 6//1 238//1 7//1
f 6//1 239//1 238//1
f 5//1 239//1 6//1
f 5//1 240//1 239//1
f 4//1 240//1 5//1
f 4//1 241//1 240//1
f 3//1 241//1 4//1
f 3//1 242//1 241//1
f 3//1 243//1 242//1
f 3//1 244//1 243//1
f 3//1 245//1 244//1
f 2//1 245//1 3//1
f 1//1 245//1 2//1
f 1//1 246//1 245//1
f 275//1 246//1 1//1
f 275//1 247//1 246//1
f 274//1 247//1 275//1
f 274//1 248//1 247//1
f 273//1 248//1 274//1
f 273//1 249//1 248//1
f 272//1 249//1 273//1
f 272//1 250//1 249//1
f 271//1 250//1 272//1
f 271//1 251//1 250//1
f 270//1 251//1 271//1
f 270//1 252//1 251//1
f 269//1 252//1 270//1
f 269//1 253//1 252//1
f 268//1 253//1 269//1
f 268//1 254//1 253//1
f 267//1 254//1 268//1
f 267//1 255//1 254//1
f 266//1 255//1 267//1
f 265//1 255//1 266//1
f 265//1 256//1 255//1
f 265//1 257//1 256//1
f 265//1 258//1 257//1
f 264//1 258//1 265//1
f 264//1 259//1 258//1
f 263//1 259//1 264//1
f 263//1 260//1 259//1
f 263//1 261//1 260//1
f 262//1 261//1 263//1
