# Blender v2.80 (sub 75) OBJ File: 'IntersectionRoads.blend'
# www.blender.org
mtllib Land.mtl
o Land_Cube
v -9.140085 -8.726666 -37.812485
v -9.140085 -1.031306 -37.812485
v -9.140085 -8.726666 -44.635460
v -9.140085 -1.031306 -44.635460
v 11.501919 -8.726666 -37.812485
v 11.501919 -1.031306 -37.812485
v 11.501919 -8.726666 -44.635460
v 11.501919 -1.031306 -44.635460
v -9.140085 -3.611946 -37.812485
v -9.140085 -3.611946 -44.635460
v 11.501919 -3.611946 -44.635460
v 11.501919 -3.611946 -37.812485
v -9.140085 -0.906263 -30.668797
v 11.501919 -0.906263 -30.668797
v -9.140085 -6.092687 -30.668797
v 11.501919 -6.092687 -30.668797
v -524.053528 -0.906264 -30.668797
v 526.415344 -0.906264 -30.668797
v -524.053528 -6.092686 -30.668797
v 526.415344 -6.092686 -30.668797
v -524.053528 -0.906264 384.454559
v 526.415344 -0.906264 384.454559
v -524.053528 -6.092686 384.454559
v 526.415344 -6.092686 384.454559
v -524.053528 -0.906264 -30.668797
v 526.415344 -0.906264 -30.668797
v -524.053528 -6.092686 -30.668797
v 526.415344 -6.092686 -30.668797
v -524.053528 -0.906264 -30.668797
v 526.415344 -0.906264 -30.668797
v -524.053528 -6.092686 -30.668797
v 526.415344 -6.092686 -30.668797
v 526.415344 -16.832539 -30.668797
v -524.053528 -16.832539 -30.668797
v 526.415344 -16.832539 384.454559
v -524.053528 -16.832539 384.454559
v -9.140085 -8.726666 -62.015568
v -9.140085 -1.031307 -62.015568
v -9.140085 -8.726666 -68.838547
v -9.140085 -1.031307 -68.838547
v 11.501919 -8.726666 -62.015568
v 11.501919 -1.031307 -62.015568
v 11.501919 -8.726666 -68.838547
v 11.501919 -1.031307 -68.838547
v -9.140085 -3.658343 -62.015568
v -9.140085 -3.658343 -68.838547
v 11.501919 -3.658343 -68.838547
v 11.501919 -3.658343 -62.015568
v -9.140085 -0.846035 -76.198395
v 11.501919 -0.846035 -76.198395
v -9.140085 -5.684060 -76.198395
v 11.501919 -5.684060 -76.198395
v 537.721008 -0.846036 -85.209579
v -535.359192 -0.846036 -85.209579
v 537.721008 -5.684060 -85.209579
v -535.359192 -5.684060 -85.209579
v 537.721008 -0.846036 -338.729431
v -535.359192 -0.846036 -338.729431
v 537.721008 -5.684060 -338.729431
v -535.359192 -5.684060 -338.729431
v -9.140085 -18.472769 -76.198395
v 11.501919 -18.472769 -76.198395
v 537.721008 -18.472767 -85.209579
v -535.359192 -18.472767 -85.209579
v 537.721008 -18.472767 -338.729431
v -535.359192 -18.472767 -338.729431
vt 0.625000 0.000000
vt 0.500000 0.250000
vt 0.500000 0.000000
vt 0.625000 0.250000
vt 0.500000 0.500000
vt 0.625000 0.500000
vt 0.500000 0.750000
vt 0.625000 0.750000
vt 0.500000 0.750000
vt 0.375000 0.500000
vt 0.125000 0.750000
vt 0.125000 0.500000
vt 0.875000 0.500000
vt 0.625000 0.750000
vt 0.375000 1.000000
vt 0.375000 0.750000
vt 0.375000 0.250000
vt 0.375000 0.000000
vt 0.625000 0.750000
vt 0.500000 0.750000
vt 0.875000 0.750000
vt 0.500000 1.000000
vt 0.500000 1.000000
vt 0.625000 0.000000
vt 0.500000 0.750000
vt 0.500000 0.000000
vt 0.625000 0.000000
vt 0.500000 1.000000
vt 0.875000 0.750000
vt 0.625000 0.750000
vt 0.500000 1.000000
vt 0.500000 0.000000
vt 0.625000 0.000000
vt 0.500000 0.750000
vt 0.875000 0.750000
vt 0.500000 0.750000
vt 0.625000 0.750000
vt 0.625000 0.000000
vt 0.500000 0.000000
vt 0.500000 1.000000
vt 0.875000 0.750000
vt 0.500000 0.750000
vt 0.625000 0.750000
vt 0.625000 0.000000
vt 0.500000 0.000000
vt 0.500000 1.000000
vt 0.875000 0.750000
vt 0.500000 1.000000
vt 0.500000 1.000000
vt 0.500000 0.750000
vt 0.500000 0.000000
vt 0.500000 0.000000
vt 0.625000 0.000000
vt 0.500000 0.250000
vt 0.500000 0.000000
vt 0.625000 0.250000
vt 0.500000 0.250000
vt 0.625000 0.500000
vt 0.500000 0.750000
vt 0.500000 0.500000
vt 0.625000 0.750000
vt 0.500000 1.000000
vt 0.375000 0.500000
vt 0.125000 0.750000
vt 0.125000 0.500000
vt 0.875000 0.500000
vt 0.375000 1.000000
vt 0.375000 0.750000
vt 0.375000 0.250000
vt 0.375000 0.000000
vt 0.625000 0.500000
vt 0.500000 0.500000
vt 0.625000 0.500000
vt 0.875000 0.500000
vt 0.625000 0.500000
vt 0.500000 0.500000
vt 0.500000 0.250000
vt 0.500000 0.250000
vt 0.500000 0.500000
vt 0.625000 0.250000
vt 0.500000 0.250000
vt 0.875000 0.500000
vt 0.875000 0.500000
vt 0.500000 0.250000
vt 0.625000 0.250000
vt 0.500000 0.500000
vt 0.500000 0.250000
vt 0.500000 0.500000
vt 0.500000 0.500000
vt 0.625000 1.000000
vt 0.875000 0.750000
vt 0.500000 0.000000
vt 0.625000 0.250000
vt 0.625000 1.000000
vt 0.875000 0.750000
vn -1.0000 0.0000 0.0000
vn 0.0000 0.0000 -1.0000
vn 1.0000 0.0000 0.0000
vn 0.0000 -1.0000 0.0000
vn 0.0000 1.0000 0.0000
vn 0.0000 0.9998 -0.0175
vn 0.0000 -0.9447 -0.3280
vn 0.0000 0.0000 1.0000
vn -0.0165 0.0000 0.9999
vn 0.0000 -0.9641 0.2654
vn 0.0000 0.9997 0.0252
vn 0.0165 0.0000 0.9999
usemtl M_BridgeSupport
s off
f 2/1/1 10/2/1 9/3/1
f 4/4/2 11/5/2 10/2/2
f 8/6/3 12/7/3 11/5/3
f 12/7/3 14/8/3 16/9/3
f 7/10/4 1/11/4 3/12/4
f 4/13/5 6/14/5 8/6/5
f 1/15/2 12/7/2 5/16/2
f 11/5/3 5/16/3 7/10/3
f 10/2/2 7/10/2 3/17/2
f 9/3/1 3/17/1 1/18/1
f 16/9/2 18/19/2 20/20/2
f 2/21/6 14/8/6 6/14/6
f 12/7/7 15/22/7 9/23/7
f 9/3/1 13/24/1 2/1/1
f 18/19/3 24/25/3 20/20/3
f 15/26/2 17/27/2 13/24/2
f 19/28/2 16/9/2 15/22/2
f 18/19/8 13/29/8 14/8/8
f 22/30/8 23/31/8 24/25/8
f 19/32/1 21/33/1 17/27/1
f 24/25/3 33/34/3 20/20/3
f 17/35/5 22/30/5 18/19/5
f 18/19/8 28/36/8 26/37/8
f 19/32/8 25/38/8 27/39/8
f 20/20/8 27/40/8 28/36/8
f 17/35/8 26/37/8 25/41/8
f 26/37/8 32/42/8 30/43/8
f 27/39/8 29/44/8 31/45/8
f 28/36/8 31/46/8 32/42/8
f 25/41/8 30/43/8 29/47/8
f 33/34/4 36/48/4 34/49/4
f 23/31/8 35/50/8 24/25/8
f 20/20/2 34/49/2 19/28/2
f 19/32/1 36/51/1 23/52/1
f 38/53/1 46/54/1 45/55/1
f 46/54/1 49/56/1 51/57/1
f 44/58/3 48/59/3 47/60/3
f 42/61/8 45/62/8 48/59/8
f 43/63/4 37/64/4 39/65/4
f 40/66/5 42/61/5 44/58/5
f 48/59/8 37/67/8 41/68/8
f 47/60/3 41/68/3 43/63/3
f 46/54/2 43/63/2 39/69/2
f 45/55/1 39/69/1 37/70/1
f 54/71/9 52/72/9 50/73/9
f 46/54/10 52/72/10 47/60/10
f 44/58/11 49/74/11 40/66/11
f 47/60/3 50/73/3 44/58/3
f 58/75/1 56/76/1 54/71/1
f 49/74/4 54/71/4 50/73/4
f 61/77/12 55/78/12 51/57/12
f 55/78/12 49/56/12 51/57/12
f 60/79/2 57/80/2 59/81/2
f 57/82/5 54/71/5 53/83/5
f 65/84/2 60/79/2 59/81/2
f 59/81/3 53/85/3 55/78/3
f 62/86/5 63/87/5 61/77/5
f 66/88/4 63/87/4 64/89/4
f 66/88/1 56/76/1 60/79/1
f 62/86/2 51/57/2 52/72/2
f 63/87/3 59/81/3 55/78/3
f 64/89/9 52/72/9 56/76/9
f 2/1/1 4/4/1 10/2/1
f 4/4/2 8/6/2 11/5/2
f 8/6/3 6/14/3 12/7/3
f 12/7/3 6/14/3 14/8/3
f 7/10/4 5/16/4 1/11/4
f 4/13/5 2/21/5 6/14/5
f 1/15/2 9/23/2 12/7/2
f 11/5/3 12/7/3 5/16/3
f 10/2/2 11/5/2 7/10/2
f 9/3/1 10/2/1 3/17/1
f 16/9/2 14/8/2 18/19/2
f 2/21/6 13/29/6 14/8/6
f 12/7/7 16/9/7 15/22/7
f 9/3/1 15/26/1 13/24/1
f 18/19/3 22/30/3 24/25/3
f 15/26/2 19/32/2 17/27/2
f 19/28/2 20/20/2 16/9/2
f 18/19/2 17/35/2 13/29/2
f 22/30/8 21/90/8 23/31/8
f 19/32/1 23/52/1 21/33/1
f 24/25/3 35/50/3 33/34/3
f 17/35/5 21/91/5 22/30/5
f 18/19/8 20/20/8 28/36/8
f 19/32/8 17/27/8 25/38/8
f 20/20/8 19/28/8 27/40/8
f 17/35/8 18/19/8 26/37/8
f 26/37/8 28/36/8 32/42/8
f 27/39/8 25/38/8 29/44/8
f 28/36/8 27/40/8 31/46/8
f 25/41/8 26/37/8 30/43/8
f 33/34/4 35/50/4 36/48/4
f 23/31/8 36/48/8 35/50/8
f 20/20/2 33/34/2 34/49/2
f 19/32/1 34/92/1 36/51/1
f 38/53/1 40/93/1 46/54/1
f 46/54/1 40/93/1 49/56/1
f 44/58/3 42/61/3 48/59/3
f 42/61/8 38/94/8 45/62/8
f 43/63/4 41/68/4 37/64/4
f 40/66/5 38/95/5 42/61/5
f 48/59/8 45/62/8 37/67/8
f 47/60/3 48/59/3 41/68/3
f 46/54/2 47/60/2 43/63/2
f 45/55/1 46/54/1 39/69/1
f 54/71/9 56/76/9 52/72/9
f 46/54/10 51/57/10 52/72/10
f 44/58/11 50/73/11 49/74/11
f 47/60/3 52/72/3 50/73/3
f 58/75/1 60/79/1 56/76/1
f 49/74/5 53/83/5 54/71/5
f 61/77/12 63/87/12 55/78/12
f 55/78/12 53/85/12 49/56/12
f 60/79/2 58/75/2 57/80/2
f 57/82/5 58/75/5 54/71/5
f 65/84/2 66/88/2 60/79/2
f 59/81/3 57/80/3 53/85/3
f 62/86/4 64/89/4 63/87/4
f 66/88/4 65/84/4 63/87/4
f 66/88/1 64/89/1 56/76/1
f 62/86/2 61/77/2 51/57/2
f 63/87/3 65/84/3 59/81/3
f 64/89/9 62/86/9 52/72/9
