# Blender v2.80 (sub 75) OBJ File: 'IntersectionRoads.blend'
# www.blender.org
mtllib Water.mtl
o Plane
v -11.865854 -8.130705 -30.432304
v 12.129150 -8.130705 -30.432304
v -11.865854 -8.130705 -75.451973
v 12.129150 -8.130705 -75.451973
v -11.865856 -8.130705 -30.400063
v -11.865856 -8.130705 -75.484215
v -299.859131 -8.130705 -29.901409
v -299.859131 -8.130705 -75.982864
v 12.129147 -8.130705 -30.488846
v 12.129147 -8.130705 -75.395432
v 353.965118 -8.130705 -30.488846
v 353.965118 -8.130705 -75.395432
v -11.865854 -53.629463 -75.451973
v -11.865854 -53.629463 -30.432304
v 12.129150 -53.629463 -30.432304
v 12.129150 -53.629463 -75.451973
v -11.865856 -53.629463 -75.484215
v -11.865856 -53.629463 -30.400063
v -299.859131 -53.629463 -75.982864
v -299.859131 -53.629463 -29.901409
v 12.129147 -53.629463 -30.488846
v 12.129147 -53.629463 -75.395432
v 353.965118 -53.629463 -30.488846
v 353.965118 -53.629463 -75.395432
vt 1.000000 0.000000
vt 0.000000 1.000000
vt 0.000000 0.000000
vt 0.000000 0.000000
vt 0.000000 1.000000
vt 0.000000 0.000000
vt 1.000000 1.000000
vt 1.000000 1.000000
vt 1.000000 0.000000
vt 1.000000 1.000000
vt 0.000000 1.000000
vt 1.000000 0.000000
vt 0.000000 0.000000
vt 0.000000 1.000000
vt 0.000000 0.000000
vt 0.000000 0.000000
vt 1.000000 1.000000
vt 1.000000 0.000000
vt 1.000000 1.000000
vt 1.000000 1.000000
vt 1.000000 0.000000
vt 1.000000 0.000000
vt 0.000000 1.000000
vt 0.000000 1.000000
vn 0.0000 1.0000 0.0000
vn 0.0000 -1.0000 0.0000
vn 0.0017 0.0000 1.0000
vn 1.0000 0.0000 0.0001
vn 1.0000 0.0000 0.0000
vn 0.0000 0.0000 -1.0000
vn -1.0000 0.0000 0.0000
vn 0.0000 0.0000 1.0000
vn 1.0000 0.0000 -0.0001
vn 0.0017 0.0000 -1.0000
usemtl M_Water
s off
f 2/1/1 3/2/1 1/3/1
f 3/2/1 5/4/1 1/3/1
f 5/4/1 8/5/1 7/6/1
f 2/1/2 10/7/2 4/8/2
f 9/9/1 12/10/1 10/7/1
f 13/11/2 15/12/2 14/13/2
f 14/13/2 17/14/2 13/11/2
f 20/15/2 17/14/2 18/16/2
f 16/17/1 21/18/1 15/12/1
f 24/19/2 21/18/2 22/20/2
f 20/15/3 5/4/3 7/6/3
f 18/16/4 1/3/4 5/4/4
f 23/21/5 12/10/5 11/22/5
f 16/17/6 3/2/6 4/8/6
f 19/23/7 7/6/7 8/5/7
f 21/18/8 11/22/8 9/9/8
f 15/12/9 9/9/9 2/1/9
f 14/13/8 2/1/8 1/3/8
f 17/14/10 8/5/10 6/24/10
f 24/19/6 10/7/6 12/10/6
f 13/11/9 6/24/9 3/2/9
f 22/20/4 4/8/4 10/7/4
f 2/1/1 4/8/1 3/2/1
f 3/2/8 6/24/8 5/4/8
f 5/4/1 6/24/1 8/5/1
f 2/1/2 9/9/2 10/7/2
f 9/9/1 11/22/1 12/10/1
f 13/11/2 16/17/2 15/12/2
f 14/13/8 18/16/8 17/14/8
f 20/15/2 19/23/2 17/14/2
f 16/17/1 22/20/1 21/18/1
f 24/19/2 23/21/2 21/18/2
f 20/15/3 18/16/3 5/4/3
f 18/16/4 14/13/4 1/3/4
f 23/21/5 24/19/5 12/10/5
f 16/17/6 13/11/6 3/2/6
f 19/23/7 20/15/7 7/6/7
f 21/18/8 23/21/8 11/22/8
f 15/12/9 21/18/9 9/9/9
f 14/13/8 15/12/8 2/1/8
f 17/14/10 19/23/10 8/5/10
f 24/19/6 22/20/6 10/7/6
f 13/11/9 17/14/9 6/24/9
f 22/20/4 16/17/4 4/8/4
